<?xml version="1.0" encoding="UTF-8" standalone="no"?>
<svg
   xmlns:dc="http://purl.org/dc/elements/1.1/"
   xmlns:cc="http://creativecommons.org/ns#"
   xmlns:rdf="http://www.w3.org/1999/02/22-rdf-syntax-ns#"
   xmlns:svg="http://www.w3.org/2000/svg"
   xmlns="http://www.w3.org/2000/svg"
   xmlns:sodipodi="http://sodipodi.sourceforge.net/DTD/sodipodi-0.dtd"
   xmlns:inkscape="http://www.inkscape.org/namespaces/inkscape"
   inkscape:export-ydpi="96"
   inkscape:export-xdpi="96"
   inkscape:export-filename="/Users/aidamonfort/Downloads/iconUB-inline.png"
   width="1535.7563"
   height="247.00165"
   viewBox="0 0 406.33552 65.352521"
   version="1.1"
   id="svg8"
   inkscape:version="1.0beta2 (2b71d25, 2019-12-03)"
   sodipodi:docname="iconUB-inline.svg">
  <defs
     id="defs2">
    <rect
       x="1142.3213"
       y="252.31715"
       width="588.32025"
       height="129.67615"
       id="rect221" />
    <style
       id="style10">.cls-1{fill:#f0ce00;}.cls-2{fill:#005ca3;}.cls-3{fill:none;stroke:#005ca3;stroke-miterlimit:10;stroke-width:3px;}</style>
  </defs>
  <sodipodi:namedview
     fit-margin-bottom="0"
     fit-margin-right="0"
     fit-margin-left="0"
     fit-margin-top="0"
     units="px"
     id="base"
     pagecolor="#ffffff"
     bordercolor="#666666"
     borderopacity="1.0"
     inkscape:pageopacity="0.0"
     inkscape:pageshadow="2"
     inkscape:zoom="0.5"
     inkscape:cx="765.62616"
     inkscape:cy="500.6383"
     inkscape:document-units="mm"
     inkscape:current-layer="layer1"
     inkscape:document-rotation="0"
     showgrid="false"
     inkscape:snap-text-baseline="false"
     inkscape:window-width="1459"
     inkscape:window-height="1279"
     inkscape:window-x="0"
     inkscape:window-y="23"
     inkscape:window-maximized="0" />
  <metadata
     id="metadata5">
    <rdf:RDF>
      <cc:Work
         rdf:about="">
        <dc:format>image/svg+xml</dc:format>
        <dc:type
           rdf:resource="http://purl.org/dc/dcmitype/StillImage" />
        <dc:title></dc:title>
      </cc:Work>
    </rdf:RDF>
  </metadata>
  <g
     transform="translate(-5.5787905,-0.91869019)"
     inkscape:groupmode="layer"
     id="layer2"
     inkscape:label="Capa update"
     style="display:inline" />
  <g
     style="display:inline"
     transform="translate(-5.5787905,-0.91869019)"
     inkscape:label="Capa 1"
     inkscape:groupmode="layer"
     id="layer1">
    <g
       transform="matrix(2.2270276,0,0,2.1110955,-25.700836,-37.885758)"
       id="g92">
      <g
         transform="matrix(0.12406536,0,0,0.12406536,14.048428,18.375551)"
         data-name="Capa 1"
         id="Capa_1">
        <path
           inkscape:connector-curvature="0"
           id="path16"
           d="m 986.73,128.35 a 25,25 0 0 1 -10.3,-7.25 15.82,15.82 0 0 1 -2.57,-4.18 V 98.19 a 22.64,22.64 0 0 1 6.87,-9.07 q 8.57,-7 23.71,-7 15.75,0 25.27,8 9.52,8 11.85,21.22 H 1021 a 17.08,17.08 0 0 0 -5.61,-10 Q 1011,97.54 1004,97.54 c -3.74,0 -6.66,0.89 -8.74,2.65 a 9,9 0 0 0 -3.12,7.18 7.27,7.27 0 0 0 2.5,5.77 17.81,17.81 0 0 0 6.24,3.43 q 3.75,1.26 10.76,3 a 111.65,111.65 0 0 1 16,4.6 26.43,26.43 0 0 1 10.61,7.64 q 4.44,5.24 4.45,14.12 a 21.8,21.8 0 0 1 -8.66,17.94 q -8.65,6.87 -23.32,6.87 -16.86,0 -27,-7.57 a 29.87,29.87 0 0 1 -9.83,-12.61 v -9 h 18.56 A 14.27,14.27 0 0 0 998,151.6 q 4.83,3.66 12.64,3.66 5.61,0 8.58,-2.73 a 9.21,9.21 0 0 0 3,-7.1 7.86,7.86 0 0 0 -2.57,-6.08 17.53,17.53 0 0 0 -6.4,-3.59 q -3.82,-1.24 -10.84,-3 a 122.21,122.21 0 0 1 -15.68,-4.41 z"
           class="cls-1" />
        <path
           inkscape:connector-curvature="0"
           id="path18"
           d="m 972.14,107.37 a 24.1,24.1 0 0 0 1.72,9.55 v 24.61 h -2.5 a 38.11,38.11 0 0 0 2.5,9 v 19.08 h -22 v -24.07 a 48.63,48.63 0 0 0 3.58,-19.14 48.94,48.94 0 0 0 -3.58,-19.18 v -53 h 22 v 44 a 23.79,23.79 0 0 0 -1.72,9.15 z"
           class="cls-1" />
        <path
           inkscape:connector-curvature="0"
           id="path20"
           d="m 973.86,116.92 a 24.1,24.1 0 0 1 -1.72,-9.55 23.79,23.79 0 0 1 1.72,-9.18 z"
           class="cls-1" />
        <path
           inkscape:connector-curvature="0"
           id="path22"
           d="m 971.36,141.53 h 2.5 v 9 a 38.11,38.11 0 0 1 -2.5,-9 z"
           class="cls-1" />
        <path
           inkscape:connector-curvature="0"
           id="path24"
           d="m 951.87,107.22 a 48.94,48.94 0 0 1 3.58,19.18 48.63,48.63 0 0 1 -3.58,19.14 z"
           class="cls-1" />
        <path
           inkscape:connector-curvature="0"
           id="path26"
           d="m 951.87,107.22 v 38.32 a 38.64,38.64 0 0 1 -2.19,4.42 39.38,39.38 0 0 1 -15.83,15.36 50.5,50.5 0 0 1 -45.4,0 A 39.32,39.32 0 0 1 872.62,150 c -0.65,-1.13 -1.25,-2.3 -1.79,-3.5 a 48.21,48.21 0 0 0 4,-20.06 48.5,48.5 0 0 0 -4,-20.1 c 0.54,-1.21 1.14,-2.39 1.79,-3.53 a 38.77,38.77 0 0 1 15.83,-15.41 51.26,51.26 0 0 1 45.4,0 39.85,39.85 0 0 1 18,19.82 z m -18.72,19.18 q 0,-12.32 -6.4,-18.8 a 22,22 0 0 0 -31.2,0 q -6.4,6.48 -6.4,18.8 0,12.32 6.4,18.8 a 22,22 0 0 0 31.2,0 q 6.39,-6.47 6.4,-18.8 z"
           class="cls-1" />
        <path
           inkscape:connector-curvature="0"
           id="path28"
           d="m 870.83,106.3 a 48.5,48.5 0 0 1 4,20.1 48.21,48.21 0 0 1 -4,20.06 48.05,48.05 0 0 1 -4,-20.06 48.34,48.34 0 0 1 4,-20.1 z"
           class="cls-1" />
        <path
           inkscape:connector-curvature="0"
           id="path30"
           d="m 869,102.77 a 37.76,37.76 0 0 1 1.8,3.53 48.34,48.34 0 0 0 -4,20.1 48.05,48.05 0 0 0 4,20.06 37.24,37.24 0 0 1 -1.8,3.54 39.44,39.44 0 0 1 -15.83,15.36 50.5,50.5 0 0 1 -45.4,0 A 39,39 0 0 1 794,153.13 v -2.39 h -1.56 c -0.16,-0.25 -0.32,-0.52 -0.47,-0.78 q -5.78,-10 -5.78,-23.56 0,-13.56 5.81,-23.63 c 0.2,-0.35 0.4,-0.69 0.61,-1 h 1.26 v -2 a 38.49,38.49 0 0 1 14,-12.4 51.26,51.26 0 0 1 45.4,0 38.89,38.89 0 0 1 15.73,15.4 z m -16.51,23.63 q 0,-12.32 -6.39,-18.8 a 22,22 0 0 0 -31.2,0 q -6.4,6.48 -6.4,18.8 0,12.32 6.4,18.8 a 22,22 0 0 0 31.2,0 q 6.39,-6.47 6.39,-18.8 z"
           class="cls-1" />
        <path
           inkscape:connector-curvature="0"
           id="path32"
           d="m 794,153.13 v 16.48 h -11.55 q -14.51,0 -22.23,-7 -7.72,-7 -7.72,-23.4 V 101.75 H 745 a 39,39 0 0 0 -4.54,-6.09 V 83.19 h 12 V 61.82 h 22 V 83.19 H 793.8 V 99.8 q -0.66,0.95 -1.26,2 H 774.5 v 37.76 q 0,6.24 2.49,8.73 2.49,2.49 8.43,2.5 h 7 c 0.51,0.77 1.03,1.57 1.58,2.34 z"
           class="cls-1" />
        <path
           inkscape:connector-curvature="0"
           id="path34"
           d="m 794,150.74 v 2.39 c -0.55,-0.77 -1.07,-1.57 -1.56,-2.39 z"
           class="cls-1" />
        <path
           inkscape:connector-curvature="0"
           id="path36"
           d="m 793.84,99.8 v 2 h -1.26 q 0.6,-1.05 1.26,-2 z"
           class="cls-1" />
        <path
           inkscape:connector-curvature="0"
           id="path38"
           d="m 745.64,102.77 q 5.76,10.07 5.77,23.63 0.01,13.56 -5.77,23.6 a 39.41,39.41 0 0 1 -15.84,15.36 50.47,50.47 0 0 1 -45.39,0 A 39.41,39.41 0 0 1 668.57,150 c -0.5,-0.86 -1,-1.74 -1.4,-2.63 a 37.69,37.69 0 0 0 2.5,-8.14 h -5.4 a 50.6,50.6 0 0 1 -1.32,-8.58 h 7 a 41.53,41.53 0 0 0 0.78,-7.48 43.57,43.57 0 0 0 -3.55,-17.79 c 0.43,-0.87 0.88,-1.73 1.36,-2.57 a 38.86,38.86 0 0 1 15.87,-15.41 51.24,51.24 0 0 1 45.39,0 38.42,38.42 0 0 1 10.69,8.26 v 6.09 H 745 c 0.24,0.33 0.44,0.67 0.64,1.02 z M 729.1,126.4 q 0,-12.32 -6.4,-18.8 a 22,22 0 0 0 -31.2,0 q -6.39,6.48 -6.39,18.8 0,12.32 6.39,18.8 a 22,22 0 0 0 31.2,0 q 6.41,-6.47 6.4,-18.8 z"
           class="cls-2" />
        <path
           inkscape:connector-curvature="0"
           id="path40"
           d="m 745,101.75 h -4.54 v -6.09 a 39,39 0 0 1 4.54,6.09 z"
           class="cls-1" />
        <path
           inkscape:connector-curvature="0"
           id="path42"
           d="m 670.76,123.13 a 41.53,41.53 0 0 1 -0.78,7.48 h -7 c -0.1,-1.37 -0.15,-2.78 -0.15,-4.21 a 48.1,48.1 0 0 1 4.41,-21.06 43.57,43.57 0 0 1 3.52,17.79 z"
           class="cls-2" />
        <path
           inkscape:connector-curvature="0"
           id="path44"
           d="m 664.27,139.19 h 5.4 a 37.69,37.69 0 0 1 -2.5,8.14 42.69,42.69 0 0 1 -2.9,-8.14 z"
           class="cls-2" />
        <path
           inkscape:connector-curvature="0"
           id="path46"
           d="m 667.17,147.33 a 36.9,36.9 0 0 1 -4.84,8.09 38.25,38.25 0 0 1 -14.43,11.23 49.38,49.38 0 0 1 -42,-1.33 37.76,37.76 0 0 1 -15.33,-15.32 41.1,41.1 0 0 1 -1.87,-3.9 v -39.4 a 41.63,41.63 0 0 1 1.87,-3.93 37.25,37.25 0 0 1 15.29,-15.37 46.62,46.62 0 0 1 22.47,-5.3 q 12.78,0 22.38,5.3 a 37.35,37.35 0 0 1 14.82,14.6 c 0.61,1.09 1.17,2.21 1.68,3.35 a 48.1,48.1 0 0 0 -4.41,21.06 c 0,1.43 0.05,2.84 0.15,4.21 h -56.31 q 0.47,11.55 6.24,17 a 20.07,20.07 0 0 0 14.35,5.46 q 7.65,0 12.72,-3.75 a 16.52,16.52 0 0 0 6.47,-10.14 h 17.85 a 42.69,42.69 0 0 0 2.9,8.14 z m -18.56,-26.39 q 0.46,-10.6 -5.54,-16.07 a 21.17,21.17 0 0 0 -14.74,-5.46 21.67,21.67 0 0 0 -15,5.46 q -6.09,5.47 -6.71,16.07 z"
           class="cls-2" />
        <path
           inkscape:connector-curvature="0"
           id="path48"
           d="m 588.7,146.06 v 23.87 a 47.85,47.85 0 0 1 -4.76,21.6 35.11,35.11 0 0 1 -14.19,15.06 q -9.43,5.46 -22.86,5.46 -18.72,0 -30.26,-8.9 -11.54,-8.9 -14,-24.18 h 21.68 a 17.88,17.88 0 0 0 7.26,10.22 q 5.38,3.66 13.8,3.67 9.67,0 15.6,-5.7 5.93,-5.7 5.93,-17.23 v -18.41 a 28.41,28.41 0 0 1 -11.07,14 q -7.81,5.24 -18.72,5.23 A 37.1,37.1 0 0 1 517.45,165.44 35.82,35.82 0 0 1 503.76,150 c -0.41,-0.84 -0.8,-1.7 -1.15,-2.58 h 4.82 v -19 h -8.55 c 0,-0.67 0,-1.35 0,-2 q 0,-13.58 4.91,-23.63 a 35.84,35.84 0 0 1 13.62,-15.39 37.18,37.18 0 0 1 19.66,-5.3 q 10.9,0 18.72,5.15 a 28,28 0 0 1 11.07,13.88 V 83.19 h 21.84 v 23.51 a 51.28,51.28 0 0 0 -3.59,19.7 51,51 0 0 0 3.59,19.66 z M 566.86,126.4 q 0,-11.54 -6.47,-18.33 a 21.79,21.79 0 0 0 -16.46,-6.78 q -10.29,0 -16.54,6.7 -6.25,6.7 -6.24,18.41 0,11.7 6.24,18.33 6.24,6.63 16.54,6.63 a 21.79,21.79 0 0 0 16.46,-6.78 q 6.47,-6.79 6.47,-18.18 z"
           class="cls-2" />
        <path
           inkscape:connector-curvature="0"
           id="path50"
           d="m 588.7,106.7 v 39.36 a 51,51 0 0 1 -3.59,-19.66 51.28,51.28 0 0 1 3.59,-19.7 z"
           class="cls-2" />
        <path
           inkscape:connector-curvature="0"
           id="path52"
           d="m 507.43,128.43 v 19 h -4.82 a 53.53,53.53 0 0 1 -3.73,-19 z"
           class="cls-2" />
        <path
           inkscape:connector-curvature="0"
           id="path54"
           d="m 502.61,147.46 h -9.53 v 22.15 h -22.16 v -22.15 h -51.09 a 47.67,47.67 0 0 0 4.45,-21.06 59.26,59.26 0 0 0 -0.38,-6.76 l 45.62,-61.41 h 23.56 v 70.2 h 5.8 a 53.53,53.53 0 0 0 3.73,19.03 z m -30,-19 V 84 l -33.38,44.46 z"
           class="cls-2" />
        <polygon
           id="polygon56"
           points="439.26,128.43 472.64,83.97 472.64,128.43 "
           class="cls-1" />
        <path
           inkscape:connector-curvature="0"
           id="path58"
           d="m 423.9,119.64 a 59.26,59.26 0 0 1 0.38,6.76 47.67,47.67 0 0 1 -4.45,21.06 h -3 v -18.25 z"
           class="cls-2" />
        <path
           inkscape:connector-curvature="0"
           id="path60"
           d="m 416.79,147.46 h 3 c -0.41,0.85 -0.85,1.68 -1.32,2.5 a 39.41,39.41 0 0 1 -15.84,15.36 50.47,50.47 0 0 1 -45.39,0 39.41,39.41 0 0 1 -15.8,-15.32 c -0.5,-0.86 -1,-1.74 -1.39,-2.64 a 38.55,38.55 0 0 0 2.49,-8.13 h -5.4 a 50.6,50.6 0 0 1 -1.32,-8.58 h 7 a 41.53,41.53 0 0 0 0.78,-7.48 43.36,43.36 0 0 0 -3.55,-17.78 c 0.43,-0.88 0.88,-1.74 1.36,-2.58 a 38.86,38.86 0 0 1 15.87,-15.41 51.24,51.24 0 0 1 45.39,0 38.86,38.86 0 0 1 15.84,15.37 43.94,43.94 0 0 1 5.39,16.87 l -7.11,9.57 z M 402,126.4 q 0,-12.32 -6.39,-18.8 a 22,22 0 0 0 -31.2,0 q -6.4,6.48 -6.4,18.8 0,12.32 6.4,18.8 a 22,22 0 0 0 31.2,0 Q 402,138.73 402,126.4 Z"
           class="cls-2" />
        <path
           inkscape:connector-curvature="0"
           id="path62"
           d="m 343.63,123.13 a 41.53,41.53 0 0 1 -0.78,7.48 h -7 c -0.1,-1.37 -0.15,-2.78 -0.15,-4.21 a 48.05,48.05 0 0 1 4.41,-21.05 43.36,43.36 0 0 1 3.52,17.78 z"
           class="cls-2" />
        <path
           inkscape:connector-curvature="0"
           id="path64"
           d="m 337.14,139.19 h 5.4 a 38.55,38.55 0 0 1 -2.49,8.13 41.71,41.71 0 0 1 -2.91,-8.13 z"
           class="cls-2" />
        <path
           inkscape:connector-curvature="0"
           id="path66"
           d="m 315.94,104.87 a 21.17,21.17 0 0 0 -14.74,-5.46 21.67,21.67 0 0 0 -15,5.46 q -6.08,5.47 -6.71,16.07 h 42 q 0.46,-10.6 -5.55,-16.07 z m 24.11,42.45 a 37,37 0 0 1 -4.84,8.1 38.4,38.4 0 0 1 -14.43,11.23 49.4,49.4 0 0 1 -42,-1.33 A 37.68,37.68 0 0 1 263.45,150 Q 258,140 258,126.4 q 0,-13.6 5.46,-23.63 A 37.17,37.17 0 0 1 278.73,87.4 46.64,46.64 0 0 1 301.2,82.1 q 12.78,0 22.38,5.3 A 37.35,37.35 0 0 1 338.4,102 c 0.61,1.1 1.18,2.22 1.68,3.36 a 48.05,48.05 0 0 0 -4.41,21.05 c 0,1.43 0.05,2.84 0.15,4.21 h -56.31 q 0.48,11.55 6.24,17 a 20.08,20.08 0 0 0 14.36,5.46 q 7.63,0 12.71,-3.75 a 16.52,16.52 0 0 0 6.47,-10.14 h 17.85 a 41.71,41.71 0 0 0 2.91,8.13 z"
           class="cls-2" />
        <path
           inkscape:connector-curvature="0"
           id="path68"
           d="m 43,232.57 58.71,-58 a 4.48,4.48 0 0 0 0.86,-2.54 l 0.11,-24.88 32.69,33.1 a 4.08,4.08 0 0 0 2.93,1.26 4.23,4.23 0 0 0 2.94,-1.21 l 33.64,-33.2 4.12,31.82 -22,-3.11 a 4.1705275,4.1705275 0 1 0 -1.16,8.26 l 27.4,3.89 a 2.55,2.55 0 0 0 0.55,0 4.18,4.18 0 0 0 2.94,-1.22 4.13,4.13 0 0 0 1.27,-3.44 l -5.85,-45.56 a 4.1,4.1 0 0 0 -1.16,-2.38 l -32.76,-33.23 25.15,0.16 a 3.07,3.07 0 0 0 2.55,-0.83 l 58.55,-57.78 a 5.86,5.86 0 0 0 0.88,-2.54 3.11,3.11 0 0 0 -0.84,-2.55 L 197.37,1 a 3.87,3.87 0 0 0 -5.09,0 l -58.71,58 a 4.48,4.48 0 0 0 -0.86,2.54 l -0.11,24.89 -1.23,-1.25 v 0 L 98.56,51.89 A 32,32 0 0 0 53.31,51.59 32,32 0 0 0 53,96.76 L 87.18,131.39 62,131.22 a 3.08,3.08 0 0 0 -2.56,0.83 L 0.87,189.83 A 6,6 0 0 0 0,192.38 3.14,3.14 0 0 0 0.84,194.93 L 38,232.54 a 3.86,3.86 0 0 0 5,0.03 z M 141,63.28 194.75,10.28 225.11,41 171.64,93.92 140.85,93.74 Z M 52.11,74.18 A 23.67,23.67 0 0 1 91,56.19 L 57.42,89.29 A 23.58,23.58 0 0 1 52.11,74.18 Z m 11.57,65.41 30.79,0.18 -0.18,30.46 -53.76,53 -30.33,-30.71 z"
           class="cls-2" />
        <path
           inkscape:connector-curvature="0"
           id="path70"
           d="m 177.33,212.52 a 29.8,29.8 0 0 0 35.26,-34.8 3.92,3.92 0 1 1 7.69,-1.39 39.58,39.58 0 0 1 -10.28,34.48 37.43,37.43 0 0 1 -26.47,10.87 42.12,42.12 0 0 1 -7.67,-1 4.1434436,4.1434436 0 1 1 1.5,-8.15 z"
           class="cls-2" />
        <path
           inkscape:connector-curvature="0"
           id="path72"
           d="m 181,239.9 c 16.29,3.47 33.59,-1.23 45.19,-13.14 a 49.31,49.31 0 0 0 13.74,-45 4.14,4.14 0 1 1 8.16,-1.38 58.1,58.1 0 0 1 -16.19,52.62 57,57 0 0 1 -40.9,16.56 50.46,50.46 0 0 1 -11.51,-1.51 4,4 0 0 1 -3.33,-4.83 c 0.5,-2.39 2.9,-3.33 4.84,-3.32 z"
           class="cls-2" />
        <rect
           id="rect74"
           transform="rotate(-44.62,127.48701,107.08147)"
           height="107.05"
           width="19.690001"
           y="53.560001"
           x="117.62"
           class="cls-1" />
        <rect
           id="rect76"
           transform="rotate(-44.62,107.64829,126.63169)"
           height="107.04"
           width="19.25"
           y="73.099998"
           x="98.010002"
           class="cls-1" />
        <line
           id="line110"
           y2="190.56"
           x2="1081.5"
           y1="56.560001"
           x1="1081.5"
           class="cls-3" />
      </g>
      <text
         transform="matrix(0.14609473,0,0,0.14609473,-15.257163,-6.9619356)"
         style="font-style:normal;font-weight:normal;font-size:40px;line-height:1.25;font-family:sans-serif;white-space:pre;shape-inside:url(#rect221);display:inline;fill:#005ca3;fill-opacity:1;stroke:none;"
         id="text219"
         xml:space="preserve"><tspan
           sodipodi:role="line"
           x="1142.3203"
           y="299.83513"><tspan
             style="font-style:normal;font-variant:normal;font-weight:normal;font-stretch:normal;font-size:52.085px;font-family:sans-serif;-inkscape-font-specification:'sans-serif Normal';font-variant-ligatures:normal;font-variant-caps:normal;font-variant-numeric:normal;font-variant-east-asian:normal">Update BoK</tspan></tspan></text>
    </g>
  </g>
</svg>
