<?xml version="1.0" encoding="UTF-8" standalone="no"?>
<svg
   xmlns:dc="http://purl.org/dc/elements/1.1/"
   xmlns:cc="http://creativecommons.org/ns#"
   xmlns:rdf="http://www.w3.org/1999/02/22-rdf-syntax-ns#"
   xmlns:svg="http://www.w3.org/2000/svg"
   xmlns="http://www.w3.org/2000/svg"
   xmlns:sodipodi="http://sodipodi.sourceforge.net/DTD/sodipodi-0.dtd"
   xmlns:inkscape="http://www.inkscape.org/namespaces/inkscape"
   viewBox="0 0 2009.3235 171.61467"
   version="1.1"
   id="svg903"
   sodipodi:docname="icon-inline.svg"
   width="2009.3235"
   height="171.61467"
   inkscape:version="1.0.1 (c497b03c, 2020-09-10)"
   inkscape:export-filename="/Users/aidamonfort/Documents/www/eo4geo/UCGIS/inline-icons/cdt.png"
   inkscape:export-xdpi="147"
   inkscape:export-ydpi="147">
  <metadata
     id="metadata909">
    <rdf:RDF>
      <cc:Work
         rdf:about="">
        <dc:format>image/svg+xml</dc:format>
        <dc:type
           rdf:resource="http://purl.org/dc/dcmitype/StillImage" />
        <dc:title>icon-inline</dc:title>
      </cc:Work>
    </rdf:RDF>
  </metadata>
  <defs
     id="defs907">
    <rect
       x="-345.50116"
       y="-170.28528"
       width="2501.2817"
       height="569.30786"
       id="rect963" />
    <clipPath
       clipPathUnits="userSpaceOnUse"
       id="clipPath927">
      <path
         d="M 0,201.333 H 898 V 0 H 0 Z"
         id="path925" />
    </clipPath>
  </defs>
  <sodipodi:namedview
     pagecolor="#ffffff"
     bordercolor="#666666"
     borderopacity="1"
     objecttolerance="10"
     gridtolerance="10"
     guidetolerance="10"
     inkscape:pageopacity="0"
     inkscape:pageshadow="2"
     inkscape:window-width="2560"
     inkscape:window-height="1324"
     id="namedview905"
     showgrid="false"
     inkscape:zoom="0.74319736"
     inkscape:cx="1042.8767"
     inkscape:cy="112.0251"
     inkscape:window-x="0"
     inkscape:window-y="25"
     inkscape:window-maximized="1"
     inkscape:current-layer="text897"
     inkscape:document-rotation="0" />
  <title
     id="title833">icon-inline</title>
  <g
     id="Capa_2"
     data-name="Capa 2"
     transform="translate(55.337781,-35.400145)">
    <g
       id="Capa_1-2"
       data-name="Capa 1">
      <g
         aria-label="OCCUPATIONAL PROFILE"
         id="text897"
         style="font-size:64px;font-family:Poppins-Regular, Poppins;fill:#58595b;fill-opacity:1">
        <g
           aria-label="BOK VERSION MANAGEMENT"
           id="text979"
           style="font-size:61.3333px;line-height:1.25;font-family:sans-serif">
          <path
             d="M 1110.8923,143.04315 V 98.989789 h 6.918 q 6.0195,0 8.8047,0.778646 3.9531,1.048175 6.289,3.893225 2.336,2.84505 2.336,6.70833 0,2.51563 -1.0781,4.58203 -1.0482,2.03646 -3.4441,3.83333 4.0131,1.88672 5.8698,4.73177 1.8568,2.8151 1.8568,6.67838 0,3.71354 -1.9167,6.76823 -1.9166,3.05468 -4.9414,4.58203 -3.0247,1.49739 -8.3554,1.49739 z m 8.3854,-36.05727 v 9.28385 h 1.8269 q 3.0547,0 4.5221,-1.28776 1.4974,-1.28776 1.4974,-3.50391 0,-2.0664 -1.4076,-3.26432 -1.4075,-1.22786 -4.2825,-1.22786 z m 0,16.77082 v 11.29036 h 2.0964 q 5.2109,0 7.0078,-1.31771 1.8268,-1.3177 1.8268,-3.83333 0,-2.84505 -2.1263,-4.49218 -2.1263,-1.64714 -7.0677,-1.64714 z"
             style="font-style:normal;font-variant:normal;font-weight:bold;font-stretch:normal;font-size:61.3333px;font-family:'Century Gothic';-inkscape-font-specification:'Century Gothic Bold'"
             id="path982" />
          <path
             d="m 1167.2842,97.881717 q 9.3438,0 16.0521,6.768223 6.7383,6.76823 6.7383,16.5013 0,9.64322 -6.6485,16.3216 -6.6184,6.67838 -16.082,6.67838 -9.9127,0 -16.4713,-6.85807 -6.5586,-6.85806 -6.5586,-16.29165 0,-6.31901 3.0547,-11.61979 3.0547,-5.30078 8.3854,-8.38541 5.3607,-3.114583 11.5299,-3.114583 z m -0.09,8.205723 q -6.1094,0 -10.2721,4.2526 -4.1628,4.25261 -4.1628,10.8112 0,7.30728 5.2409,11.55989 4.0729,3.32421 9.3437,3.32421 5.9597,0 10.1524,-4.31249 4.1927,-4.3125 4.1927,-10.63151 0,-6.28906 -4.2227,-10.6315 -4.2226,-4.3724 -10.2721,-4.3724 z"
             style="font-style:normal;font-variant:normal;font-weight:bold;font-stretch:normal;font-size:61.3333px;font-family:'Century Gothic';-inkscape-font-specification:'Century Gothic Bold'"
             id="path984" />
          <path
             d="m 1198.0407,98.989789 h 8.4753 v 15.153641 l 11.9492,-15.153641 h 10.0924 l -15.3932,19.645821 16.8906,24.40754 h -9.9427 l -13.5963,-19.55598 v 19.55598 h -8.4753 z"
             style="font-style:normal;font-variant:normal;font-weight:bold;font-stretch:normal;font-size:61.3333px;font-family:'Century Gothic';-inkscape-font-specification:'Century Gothic Bold'"
             id="path986" />
          <path
             d="m 1249.8506,98.989789 h 8.625 l 11.0807,31.295561 11.2305,-31.295561 h 8.625 l -15.8724,44.053361 h -8.086 z"
             style="font-style:normal;font-variant:normal;font-weight:bold;font-stretch:normal;font-size:61.3333px;font-family:'Century Gothic';-inkscape-font-specification:'Century Gothic Bold'"
             id="path988" />
          <path
             d="m 1296.2399,98.989789 h 24.0482 v 8.205721 h -15.7227 v 7.96615 h 15.7227 v 8.05598 h -15.7227 v 11.58984 h 15.7227 v 8.23567 h -24.0482 z"
             style="font-style:normal;font-variant:normal;font-weight:bold;font-stretch:normal;font-size:61.3333px;font-family:'Century Gothic';-inkscape-font-specification:'Century Gothic Bold'"
             id="path990" />
          <path
             d="m 1328.6435,98.989789 h 8.8945 q 7.3073,0 10.392,1.317711 3.1145,1.28776 5.0013,4.31249 1.8867,3.02474 1.8867,7.15755 0,4.34245 -2.0964,7.27734 -2.0664,2.90495 -6.2591,4.40234 l 10.4219,19.58593 h -9.1641 l -9.9127,-18.65754 h -0.7787 v 18.65754 h -8.3854 z m 8.3854,17.220041 h 2.6354 q 4.0131,0 5.5105,-1.04817 1.5273,-1.04818 1.5273,-3.47396 0,-1.4375 -0.7487,-2.48568 -0.7487,-1.07812 -2.0065,-1.52734 -1.2578,-0.47917 -4.612,-0.47917 h -2.306 z"
             style="font-style:normal;font-variant:normal;font-weight:bold;font-stretch:normal;font-size:61.3333px;font-family:'Century Gothic';-inkscape-font-specification:'Century Gothic Bold'"
             id="path992" />
          <path
             d="m 1386.7424,104.97937 -6.1992,5.48047 q -3.2643,-4.55209 -6.6484,-4.55209 -1.6471,0 -2.6953,0.89844 -1.0482,0.86849 -1.0482,1.97656 0,1.10808 0.7487,2.09636 1.0182,1.3177 6.1393,5.66015 4.7917,4.01302 5.8099,5.06119 2.5456,2.57552 3.5938,4.94141 1.0781,2.33593 1.0781,5.12109 0,5.42057 -3.7435,8.95442 -3.7435,3.53385 -9.763,3.53385 -4.7018,0 -8.2057,-2.30598 -3.474,-2.30599 -5.9597,-7.2474 l 7.0378,-4.2526 q 3.1745,5.83984 7.3073,5.83984 2.1562,0 3.6237,-1.25781 1.4674,-1.25781 1.4674,-2.90495 0,-1.49739 -1.1081,-2.99479 -1.108,-1.49739 -4.8815,-4.58202 -7.1875,-5.86979 -9.2838,-9.04427 -2.0964,-3.20443 -2.0964,-6.3789 0,-4.58203 3.474,-7.84635 3.5039,-3.294273 8.625,-3.294273 3.2943,0 6.2591,1.527343 2.9948,1.52734 6.4687,5.57031 z"
             style="font-style:normal;font-variant:normal;font-weight:bold;font-stretch:normal;font-size:61.3333px;font-family:'Century Gothic';-inkscape-font-specification:'Century Gothic Bold'"
             id="path994" />
          <path
             d="m 1394.9182,98.989789 h 8.3255 v 44.053361 h -8.3255 z"
             style="font-style:normal;font-variant:normal;font-weight:bold;font-stretch:normal;font-size:61.3333px;font-family:'Century Gothic';-inkscape-font-specification:'Century Gothic Bold'"
             id="path996" />
          <path
             d="m 1433.4612,97.881717 q 9.3437,0 16.0521,6.768223 6.7382,6.76823 6.7382,16.5013 0,9.64322 -6.6484,16.3216 -6.6185,6.67838 -16.082,6.67838 -9.9128,0 -16.4714,-6.85807 -6.5586,-6.85806 -6.5586,-16.29165 0,-6.31901 3.0547,-11.61979 3.0547,-5.30078 8.3854,-8.38541 5.3607,-3.114583 11.53,-3.114583 z m -0.09,8.205723 q -6.1093,0 -10.2721,4.2526 -4.1627,4.25261 -4.1627,10.8112 0,7.30728 5.2408,11.55989 4.073,3.32421 9.3438,3.32421 5.9596,0 10.1523,-4.31249 4.1927,-4.3125 4.1927,-10.63151 0,-6.28906 -4.2226,-10.6315 -4.2227,-4.3724 -10.2722,-4.3724 z"
             style="font-style:normal;font-variant:normal;font-weight:bold;font-stretch:normal;font-size:61.3333px;font-family:'Century Gothic';-inkscape-font-specification:'Century Gothic Bold'"
             id="path998" />
          <path
             d="m 1464.1877,98.989789 h 8.0261 l 18.8971,28.989571 V 98.989789 h 8.3854 v 44.053361 h -8.056 l -18.8672,-28.89972 v 28.89972 h -8.3854 z"
             style="font-style:normal;font-variant:normal;font-weight:bold;font-stretch:normal;font-size:61.3333px;font-family:'Century Gothic';-inkscape-font-specification:'Century Gothic Bold'"
             id="path1000" />
          <path
             d="m 1530.9416,98.989789 h 8.2057 l 10.1823,30.726551 10.332,-30.726551 h 8.086 l 7.427,44.053361 h -8.0859 l -4.7318,-27.8216 -9.3737,27.8216 h -7.3971 l -9.2539,-27.8216 -4.8216,27.8216 h -8.1758 z"
             style="font-style:normal;font-variant:normal;font-weight:bold;font-stretch:normal;font-size:61.3333px;font-family:'Century Gothic';-inkscape-font-specification:'Century Gothic Bold'"
             id="path1002" />
          <path
             d="m 1595.3296,98.989789 h 8.5052 l 16.9505,44.053361 h -8.7148 l -3.444,-9.07421 h -17.9688 l -3.5937,9.07421 h -8.7149 z m 4.3125,11.679681 -5.8698,15.12369 h 11.7096 z"
             style="font-style:normal;font-variant:normal;font-weight:bold;font-stretch:normal;font-size:61.3333px;font-family:'Century Gothic';-inkscape-font-specification:'Century Gothic Bold'"
             id="path1004" />
          <path
             d="m 1627.3439,98.989789 h 8.026 l 18.8972,28.989571 V 98.989789 h 8.3854 v 44.053361 h -8.056 l -18.8672,-28.89972 v 28.89972 h -8.3854 z"
             style="font-style:normal;font-variant:normal;font-weight:bold;font-stretch:normal;font-size:61.3333px;font-family:'Century Gothic';-inkscape-font-specification:'Century Gothic Bold'"
             id="path1006" />
          <path
             d="m 1686.1316,98.989789 h 8.5052 l 16.9505,44.053361 h -8.7148 l -3.444,-9.07421 h -17.9687 l -3.5938,9.07421 h -8.7148 z m 4.3125,11.679681 -5.8698,15.12369 h 11.7097 z"
             style="font-style:normal;font-variant:normal;font-weight:bold;font-stretch:normal;font-size:61.3333px;font-family:'Century Gothic';-inkscape-font-specification:'Century Gothic Bold'"
             id="path1008" />
          <path
             d="m 1758.7852,106.17729 -5.8997,5.83984 q -5.6003,-5.92969 -13.0573,-5.92969 -6.4987,0 -10.901,4.3125 -4.3724,4.3125 -4.3724,10.48177 0,6.3789 4.552,10.81119 4.5521,4.43229 11.2305,4.43229 4.3425,0 7.3073,-1.82683 2.9948,-1.82682 4.8216,-5.72004 h -12.7578 v -7.8763 h 22.1614 l 0.06,1.85677 q 0,5.77994 -2.9947,10.96093 -2.9948,5.18099 -7.7566,7.90625 -4.7617,2.72525 -11.1705,2.72525 -6.8581,0 -12.2487,-2.96484 -5.3607,-2.99479 -8.5052,-8.5052 -3.1146,-5.51042 -3.1146,-11.88932 0,-8.74479 5.7799,-15.21353 6.8581,-7.696613 17.849,-7.696613 5.75,0 10.7513,2.126303 4.2226,1.79687 8.2656,6.16927 z"
             style="font-style:normal;font-variant:normal;font-weight:bold;font-stretch:normal;font-size:61.3333px;font-family:'Century Gothic';-inkscape-font-specification:'Century Gothic Bold'"
             id="path1010" />
          <path
             d="m 1769.6563,98.989789 h 24.0482 v 8.205721 h -15.7227 v 7.96615 h 15.7227 v 8.05598 h -15.7227 v 11.58984 h 15.7227 v 8.23567 h -24.0482 z"
             style="font-style:normal;font-variant:normal;font-weight:bold;font-stretch:normal;font-size:61.3333px;font-family:'Century Gothic';-inkscape-font-specification:'Century Gothic Bold'"
             id="path1012" />
          <path
             d="m 1805.7435,98.989789 h 8.2057 l 10.1823,30.726551 10.332,-30.726551 h 8.086 l 7.4271,44.053361 h -8.086 l -4.7317,-27.8216 -9.3737,27.8216 h -7.3972 l -9.2539,-27.8216 -4.8216,27.8216 h -8.1758 z"
             style="font-style:normal;font-variant:normal;font-weight:bold;font-stretch:normal;font-size:61.3333px;font-family:'Century Gothic';-inkscape-font-specification:'Century Gothic Bold'"
             id="path1014" />
          <path
             d="m 1856.7448,98.989789 h 24.0482 v 8.205721 h -15.7227 v 7.96615 h 15.7227 v 8.05598 h -15.7227 v 11.58984 h 15.7227 v 8.23567 h -24.0482 z"
             style="font-style:normal;font-variant:normal;font-weight:bold;font-stretch:normal;font-size:61.3333px;font-family:'Century Gothic';-inkscape-font-specification:'Century Gothic Bold'"
             id="path1016" />
          <path
             d="m 1888.6094,98.989789 h 8.026 l 18.8971,28.989571 V 98.989789 h 8.3854 v 44.053361 h -8.056 l -18.8671,-28.89972 v 28.89972 h -8.3854 z"
             style="font-style:normal;font-variant:normal;font-weight:bold;font-stretch:normal;font-size:61.3333px;font-family:'Century Gothic';-inkscape-font-specification:'Century Gothic Bold'"
             id="path1018" />
          <path
             d="m 1929.638,98.989789 h 24.3477 v 8.265621 h -8.0261 v 35.78774 h -8.5052 v -35.78774 h -7.8164 z"
             style="font-style:normal;font-variant:normal;font-weight:bold;font-stretch:normal;font-size:61.3333px;font-family:'Century Gothic';-inkscape-font-specification:'Century Gothic Bold'"
             id="path1020" />
        </g>
      </g>
      <line
         x1="1081.5"
         y1="56.560001"
         x2="1081.5"
         y2="190.56"
         fill="none"
         stroke="#005ca3"
         stroke-miterlimit="10"
         stroke-width="3"
         id="line899"
         style="stroke:#38b29a;stroke-opacity:1" />
      <g
         id="g923"
         clip-path="url(#clipPath927)"
         transform="matrix(1.3333333,0,0,-1.3333333,-103.78218,254.81614)">
        <g
           id="g929"
           transform="translate(165.2987,118.0593)">
          <path
             d="m 0,0 v -21.054 l -8.637,0.018 h -0.009 c -0.478,0 -0.948,-0.193 -1.297,-0.533 -0.341,-0.35 -0.543,-0.819 -0.543,-1.306 v -2.907 h -4.47 c -1.021,0 -1.84,-0.819 -1.84,-1.84 l -0.009,-3.992 h -3.293 v 8.739 c 0,1.021 -0.827,1.839 -1.839,1.839 h -13.108 c -1.02,0 -1.839,-0.818 -1.839,-1.839 v -2.907 h -6.632 v 2.907 c 0,1.021 -0.828,1.839 -1.839,1.839 H -55.4 c -1.012,0 -1.839,-0.818 -1.839,-1.839 v -5.97 l -5.013,0.018 v 10.551 c 0,1.021 -0.828,1.839 -1.84,1.839 h -10.964 c -1.012,0 -1.84,-0.818 -1.84,-1.839 v -13.439 h -5.417 v 4.093 c 0,1.012 -0.819,1.84 -1.839,1.84 h -6.826 v 7.506 c 0,1.021 -0.827,1.839 -1.839,1.839 h -10.045 c -1.011,0 -1.839,-0.818 -1.839,-1.839 v -11.305 l -5.933,-0.037 v 6.743 c 0,1.021 -0.828,1.839 -1.839,1.839 h -10.045 c -1.012,0 -1.839,-0.818 -1.839,-1.839 v -2.889 l -4.608,0.046 V 0 Z"
             style="fill:#ffcb39;fill-opacity:1;fill-rule:nonzero;stroke:none"
             id="path931" />
        </g>
        <g
           id="g933"
           transform="translate(165.3837,134.2028)">
          <path
             d="m 0,0 c -0.029,0 -0.056,-0.005 -0.085,-0.004 -6.861,0.432 -15.166,0.459 -16.593,-0.189 -0.309,-0.157 -0.641,-0.233 -0.97,-0.233 -0.565,0 -1.122,0.224 -1.539,0.648 -3.073,3.122 -5.066,6.281 -6.793,9.641 -3.8,-5.641 -7.313,-6.013 -11.107,-5.833 -2.462,0.121 -4.088,0.196 -6.384,-3.154 -0.372,-0.543 -0.972,-0.887 -1.628,-0.934 -0.654,-0.049 -1.299,0.208 -1.745,0.693 -3.825,4.165 -7.032,8.802 -9.564,13.828 -1.666,-2.29 -3.617,-4.313 -5.831,-6.04 -0.666,-0.519 -1.573,-0.604 -2.322,-0.215 -0.864,0.447 -1.601,1.018 -2.2,1.698 -4.32,-4.762 -7.171,-5.053 -10.126,-4.884 -1.709,0.101 -2.739,0.16 -5.022,-2.434 -0.41,-0.467 -1.001,-0.733 -1.622,-0.733 h -10e-4 c -0.621,0 -1.212,0.268 -1.622,0.735 -2.914,3.319 -5.191,7.036 -6.798,11.086 -6.618,-8.655 -8.872,-9.939 -20.043,-11.856 -1.093,-0.187 -2.149,0.483 -2.446,1.551 -0.422,1.517 -0.984,2.524 -1.544,2.762 -0.951,0.404 -3.145,-0.781 -4.908,-1.732 -2.27,-1.225 -5.146,-2.776 -7.863,-2.344 V -12.032 H 0 Z"
             style="fill:#e87338;fill-opacity:1;fill-rule:nonzero;stroke:none"
             id="path935" />
        </g>
        <path
           d="M 165.384,63.397 H 36.628 V 35.851 h 128.756 z"
           style="fill:#2b4e56;fill-opacity:1;fill-rule:nonzero;stroke:none"
           id="path937" />
        <g
           id="g939"
           transform="translate(42.4383,142.405)">
          <path
             d="m 0,0 c 2.713,1.464 5.789,3.124 8.652,1.906 1.447,-0.616 2.558,-1.839 3.367,-3.716 9.15,1.63 10.101,2.581 17.985,13.154 0.493,0.661 1.32,0.985 2.131,0.831 0.811,-0.153 1.464,-0.754 1.683,-1.549 1.171,-4.249 3.105,-8.145 5.761,-11.611 2.526,2.143 4.569,2.244 6.731,2.118 2.036,-0.118 3.962,-0.231 8.595,5.787 0.516,0.671 1.377,0.979 2.202,0.786 0.824,-0.192 1.46,-0.847 1.627,-1.677 0.109,-0.538 0.297,-0.979 0.583,-1.345 2.241,1.994 4.127,4.38 5.62,7.112 0.397,0.727 1.182,1.16 2.002,1.122 0.828,-0.041 1.559,-0.552 1.882,-1.314 2.213,-5.218 5.169,-10.039 8.804,-14.362 3.057,3.159 5.999,3.017 8.44,2.901 3.021,-0.144 5.405,-0.26 9.151,7.093 0.375,0.736 1.138,1.208 1.963,1.179 0.826,-0.015 1.571,-0.5 1.92,-1.248 1.953,-4.2 3.733,-7.745 6.874,-11.203 4.176,0.81 12.854,0.408 16.972,0.153 v 26.04 H -5.811 V -1.533 C -4.714,-2.426 -2.79,-1.505 0,0"
             style="fill:#e54a41;fill-opacity:1;fill-rule:nonzero;stroke:none"
             id="path941" />
        </g>
        <g
           id="g943"
           transform="translate(158.4923,90.4377)">
          <path
             d="m 0,0 c 0,-1.012 -0.819,-1.84 -1.84,-1.84 h -4.479 v -3.992 c 0,-1.021 -0.819,-1.839 -1.84,-1.839 h -6.972 c -1.021,0 -1.84,0.818 -1.84,1.839 v 8.739 h -9.427 V 0 c 0,-1.012 -0.828,-1.84 -1.84,-1.84 h -10.311 c -1.012,0 -1.84,0.828 -1.84,1.84 v 2.907 h -6.365 v -5.97 c 0,-0.497 -0.193,-0.966 -0.533,-1.306 -0.35,-0.34 -0.819,-0.534 -1.306,-0.534 l -8.702,0.028 c -1.011,0 -1.83,0.828 -1.83,1.84 V 7.506 H -66.41 V -5.933 c 0,-1.012 -0.818,-1.839 -1.839,-1.839 h -9.097 c -1.012,0 -1.84,0.827 -1.84,1.839 v 4.093 h -6.825 c -1.021,0 -1.84,0.828 -1.84,1.84 v 7.506 h -6.364 V -3.79 c 0,-1.011 -0.81,-1.83 -1.822,-1.839 l -9.621,-0.065 c -0.488,-0.036 -0.956,0.194 -1.306,0.534 -0.349,0.349 -0.542,0.818 -0.542,1.306 v 6.761 h -6.366 V 0 c 0,-0.488 -0.193,-0.966 -0.542,-1.306 -0.35,-0.34 -0.81,-0.534 -1.297,-0.534 h -0.019 l -6.429,0.065 V -23.023 H 6.806 V 2.888 L 0,2.907 Z"
             style="fill:#38b29a;fill-opacity:1;fill-rule:nonzero;stroke:none"
             id="path945" />
        </g>
        <g
           id="g947"
           transform="translate(229.8883,143.1885)">
          <path
             d="m 0,0 -6.586,-23.383 c -2.719,-9.608 -6.768,-15.106 -17.221,-15.106 -6.827,0 -12.869,2.538 -12.869,10.272 0,9.789 6.283,19.637 6.283,29.063 0,2.114 -3.504,2.054 -4.833,2.054 v 1.813 c 3.082,-0.725 13.535,-0.483 17.159,0 V 2.9 c -3.746,-0.241 -5.135,0 -6.283,-3.746 -2.054,-6.888 -6.646,-21.993 -6.646,-29.305 0,-4.229 4.047,-6.163 7.794,-6.163 9.002,0 11.601,5.741 14.018,13.293 1.208,3.686 6.163,20.725 6.163,23.505 0,2.356 -3.142,2.295 -4.833,2.416 V 4.713 C -5.74,4.048 2.114,4.23 4.592,4.713 V 2.9 C 1.691,2.779 0.785,2.9 0,0"
             style="fill:#58595b;fill-opacity:1;fill-rule:nonzero;stroke:none"
             id="path949" />
        </g>
        <g
           id="g951"
           transform="translate(252.5317,104.9413)">
          <path
             d="m 0,0 c -2.115,0 -2.961,1.329 -2.961,3.323 0,6.828 5.921,14.26 5.921,21.269 0,0.846 -0.303,1.39 -1.208,1.39 -4.713,0 -13.293,-10.393 -15.952,-14.139 h -0.604 L -17.221,0 c -1.39,0.484 -2.961,0.544 -4.41,0.604 1.631,7.432 4.953,16.193 5.015,23.746 l -0.725,0.907 c -1.693,-0.847 -3.384,-1.632 -5.015,-2.538 l -0.726,0.846 c 2.297,1.813 6.707,5.86 9.728,5.86 1.088,0 1.813,-0.422 1.813,-1.631 0,-4.108 -1.692,-9.486 -2.659,-13.534 h 0.121 c 3.987,4.773 11.783,15.165 18.489,15.165 2.296,0 3.384,-1.812 3.384,-3.927 0,-7.009 -5.922,-14.38 -5.922,-21.208 0,-0.604 0.363,-1.148 1.028,-1.148 2.296,0 4.773,2.115 6.706,3.263 L 10.151,5.619 C 7.432,3.384 3.685,0 0,0"
             style="fill:#58595b;fill-opacity:1;fill-rule:nonzero;stroke:none"
             id="path953" />
        </g>
        <g
           id="g955"
           transform="translate(277.0588,141.92)">
          <path
             d="m 0,0 c -1.872,0 -3.262,1.39 -3.262,3.262 0,1.874 1.39,3.324 3.262,3.324 1.934,0 3.263,-1.45 3.263,-3.324 C 3.263,1.39 1.873,0 0,0 m -7.371,-36.979 c -2.115,0 -3.625,1.209 -3.625,3.444 0,5.559 5.68,15.831 5.68,21.027 0,0.302 -0.303,0.544 -0.605,0.544 -1.511,0 -4.108,-2.235 -5.438,-3.081 l -0.725,1.027 c 2.598,1.812 6.888,6.465 10.03,6.465 1.269,0 2.417,-0.362 2.417,-1.813 0,-4.471 -6.284,-17.522 -6.284,-23.202 0,-0.967 0.483,-1.269 1.33,-1.269 1.812,0 4.954,2.115 6.525,3.082 l 0.725,-0.967 c -2.598,-1.873 -6.646,-5.257 -10.03,-5.257"
             style="fill:#58595b;fill-opacity:1;fill-rule:nonzero;stroke:none"
             id="path957" />
        </g>
        <g
           id="g959"
           transform="translate(291.6787,104.9413)">
          <path
             d="m 0,0 c -1.691,0 -1.934,0.061 -2.114,1.752 -0.605,5.922 -0.786,11.904 -1.451,17.885 -0.06,0.544 -0.302,4.894 -1.268,4.894 -1.39,0 -3.929,-3.141 -4.895,-4.048 l -0.967,0.907 c 1.933,2.175 5.439,8.035 8.581,8.035 3.685,0 4.35,-22.96 4.592,-25.618 3.262,3.081 13.413,14.682 13.413,19.516 0,3.082 -3.505,-1.088 -3.505,3.927 0,1.571 0.545,2.175 2.116,2.175 2.537,0 4.773,-1.208 4.773,-3.987 C 19.275,20.664 4.049,0 0,0"
             style="fill:#58595b;fill-opacity:1;fill-rule:nonzero;stroke:none"
             id="path961" />
        </g>
        <g
           id="g963"
           transform="translate(327.143,132.494)">
          <path
             d="m 0,0 c -5.921,0 -9.668,-7.915 -10.936,-12.81 5.62,0.242 13.474,3.384 13.474,10.03 C 2.538,-1.209 1.693,0 0,0 m -7.854,-27.553 c -5.801,0 -8.943,3.263 -8.943,9.064 0,9.305 8.64,20.362 18.368,20.362 2.598,0 5.438,-1.269 5.438,-4.229 0,-8.278 -11.419,-12.145 -18.187,-12.266 -0.362,-1.209 -0.543,-2.478 -0.543,-3.746 0,-3.444 2.115,-5.922 5.619,-5.922 4.834,0 9.003,2.659 12.628,5.619 l 0.845,-0.845 c -3.564,-3.867 -9.727,-8.037 -15.225,-8.037"
             style="fill:#58595b;fill-opacity:1;fill-rule:nonzero;stroke:none"
             id="path965" />
        </g>
        <g
           id="g967"
           transform="translate(358.1369,128.7474)">
          <path
             d="m 0,0 c -1.45,0 -2.054,1.209 -2.901,1.209 -2.779,0 -9.183,-10.333 -9.969,-12.991 h -0.604 l -3.022,-12.024 c -1.51,0.484 -3.141,0.725 -4.773,0.725 1.269,4.109 5.861,20.302 5.861,23.685 0,0.363 -0.181,0.846 -0.483,1.088 -1.208,-0.12 -4.29,-2.477 -5.378,-3.263 l -0.665,0.846 c 2.116,1.632 7.131,6.344 9.79,6.344 1.086,0 1.811,-0.664 1.811,-1.752 0,-3.987 -1.993,-8.942 -2.658,-12.991 l 0.121,-0.12 c 1.752,3.806 7.674,14.863 12.327,14.863 2.477,0 2.537,-0.906 2.537,-3.202 C 1.994,0.846 1.691,0 0,0"
             style="fill:#58595b;fill-opacity:1;fill-rule:nonzero;stroke:none"
             id="path969" />
        </g>
        <g
           id="g971"
           transform="translate(378.48,127.8415)">
          <path
             d="m 0,0 c -2.599,0 -0.302,4.652 -5.982,4.652 -2.96,0 -6.224,-1.45 -6.224,-4.833 0,-4.593 11.118,-7.251 11.118,-13.958 0,-6.042 -7.854,-8.761 -12.809,-8.761 -3.747,0 -8.157,0.242 -8.157,4.773 0,1.631 -0.061,2.598 1.812,2.598 3.203,0 -0.121,-5.558 6.948,-5.558 3.142,0 7.734,1.872 7.734,5.619 0,4.834 -10.875,7.432 -10.875,13.655 0,5.74 6.586,8.338 11.42,8.338 3.322,0 6.646,-0.241 6.646,-4.169 C 1.631,1.027 1.571,0 0,0"
             style="fill:#58595b;fill-opacity:1;fill-rule:nonzero;stroke:none"
             id="path973" />
        </g>
        <g
           id="g975"
           transform="translate(394.0648,141.92)">
          <path
             d="m 0,0 c -1.872,0 -3.262,1.39 -3.262,3.262 0,1.874 1.39,3.324 3.262,3.324 1.934,0 3.263,-1.45 3.263,-3.324 C 3.263,1.39 1.873,0 0,0 m -7.371,-36.979 c -2.115,0 -3.625,1.209 -3.625,3.444 0,5.559 5.68,15.831 5.68,21.027 0,0.302 -0.303,0.544 -0.605,0.544 -1.511,0 -4.108,-2.235 -5.438,-3.081 l -0.725,1.027 c 2.598,1.812 6.888,6.465 10.03,6.465 1.269,0 2.417,-0.362 2.417,-1.813 0,-4.471 -6.284,-17.522 -6.284,-23.202 0,-0.967 0.483,-1.269 1.33,-1.269 1.812,0 4.954,2.115 6.525,3.082 l 0.725,-0.967 c -2.598,-1.873 -6.646,-5.257 -10.03,-5.257"
             style="fill:#58595b;fill-opacity:1;fill-rule:nonzero;stroke:none"
             id="path977" />
        </g>
        <g
           id="g979"
           transform="translate(409.4714,131.7688)">
          <path
             d="m 0,0 c -1.148,-4.471 -5.921,-19.698 -5.921,-22.96 0,-0.906 0.483,-1.088 1.269,-1.088 1.631,0 4.471,1.813 5.86,2.719 l 0.605,-0.967 c -2.236,-1.994 -6.103,-4.531 -9.184,-4.531 -1.571,0 -3.625,0.604 -3.625,2.537 0,5.499 5.377,17.946 6.766,24.29 h -5.678 v 1.39 c 5.316,0.241 8.82,3.988 10.875,8.64 H 2.659 L 0.483,1.873 H 6.284 V 0 Z"
             style="fill:#58595b;fill-opacity:1;fill-rule:nonzero;stroke:none"
             id="path981" />
        </g>
        <g
           id="g983"
           transform="translate(413.353,92.253)">
          <path
             d="m 0,0 c -2.356,0 -2.779,0.06 -2.779,2.477 0,1.752 0.362,2.417 2.174,2.417 1.088,0 2.478,-1.208 3.444,-1.752 2.539,0.181 8.52,8.217 9.668,10.332 -1.691,7.311 -2.839,15.468 -5.378,22.537 -0.18,0.483 -0.483,1.45 -1.148,1.45 -1.691,0 -3.625,-2.9 -4.955,-3.867 L 0.06,34.319 c 1.451,1.934 5.136,7.795 7.734,7.795 4.23,0 7.552,-20.725 8.217,-23.625 2.841,4.411 8.279,12.145 8.279,17.462 0,3.444 -3.203,-0.061 -3.203,3.686 0,1.631 0.422,2.477 2.175,2.477 3.022,0 3.928,-2.175 3.928,-4.894 C 27.19,29.969 7.492,0 0,0"
             style="fill:#58595b;fill-opacity:1;fill-rule:nonzero;stroke:none"
             id="path985" />
        </g>
        <g
           id="g987"
           transform="translate(503.4475,136.4212)">
          <path
             d="M 0,0 C -0.483,0.06 -1.088,0.242 -1.571,0.242 -2.055,0.242 -2.659,0.06 -3.142,0 c -0.302,5.74 -2.296,9.909 -8.641,9.909 -11.964,0 -18.55,-16.011 -18.55,-26.041 0,-6.949 3.566,-12.206 10.938,-12.206 5.256,0 9.244,2.538 13.172,5.74 l 1.208,-1.329 c -4.35,-4.471 -10.09,-7.794 -16.496,-7.794 -9.727,0 -15.347,6.585 -15.347,16.072 0,15.226 11.178,27.734 26.707,27.734 3.928,0 7.613,-1.451 11.239,-2.78 z"
             style="fill:#58595b;fill-opacity:1;fill-rule:nonzero;stroke:none"
             id="path989" />
        </g>
        <g
           id="g991"
           transform="translate(518.1264,132.494)">
          <path
             d="m 0,0 c -8.459,0 -12.567,-11.782 -12.567,-18.731 0,-4.229 2.839,-7.009 7.009,-7.009 8.459,0 12.446,11.843 12.446,18.731 C 6.888,-2.78 4.29,0 0,0 m -6.404,-27.553 c -6.345,0 -11.238,3.686 -11.238,10.393 0,9.97 8.217,19.033 18.367,19.033 6.405,0 11.239,-3.746 11.239,-10.392 0,-10.031 -8.157,-19.034 -18.368,-19.034"
             style="fill:#58595b;fill-opacity:1;fill-rule:nonzero;stroke:none"
             id="path993" />
        </g>
        <g
           id="g995"
           transform="translate(555.7062,104.9413)">
          <path
             d="m 0,0 c -2.115,0 -2.961,1.329 -2.961,3.323 0,6.828 5.921,14.26 5.921,21.269 0,0.846 -0.302,1.39 -1.208,1.39 -4.713,0 -13.293,-10.393 -15.951,-14.139 h -0.605 L -17.221,0 c -1.39,0.484 -2.961,0.544 -4.41,0.604 1.631,7.432 4.954,16.193 5.015,23.746 l -0.725,0.907 c -1.693,-0.847 -3.384,-1.632 -5.015,-2.538 l -0.726,0.846 c 2.297,1.813 6.707,5.86 9.728,5.86 1.088,0 1.813,-0.422 1.813,-1.631 0,-4.108 -1.692,-9.486 -2.658,-13.534 h 0.12 c 3.987,4.773 11.783,15.165 18.489,15.165 2.296,0 3.384,-1.812 3.384,-3.927 0,-7.009 -5.922,-14.38 -5.922,-21.208 0,-0.604 0.363,-1.148 1.028,-1.148 2.296,0 4.773,2.115 6.706,3.263 L 10.151,5.619 C 7.432,3.384 3.685,0 0,0"
             style="fill:#58595b;fill-opacity:1;fill-rule:nonzero;stroke:none"
             id="path997" />
        </g>
        <g
           id="g999"
           transform="translate(589.9623,127.8415)">
          <path
             d="m 0,0 c -2.599,0 -0.302,4.652 -5.982,4.652 -2.962,0 -6.224,-1.45 -6.224,-4.833 0,-4.593 11.118,-7.251 11.118,-13.958 0,-6.042 -7.856,-8.761 -12.809,-8.761 -3.747,0 -8.157,0.242 -8.157,4.773 0,1.631 -0.061,2.598 1.812,2.598 3.203,0 -0.121,-5.558 6.948,-5.558 3.142,0 7.734,1.872 7.734,5.619 0,4.834 -10.875,7.432 -10.875,13.655 0,5.74 6.586,8.338 11.42,8.338 3.322,0 6.646,-0.241 6.646,-4.169 C 1.631,1.027 1.571,0 0,0"
             style="fill:#58595b;fill-opacity:1;fill-rule:nonzero;stroke:none"
             id="path1001" />
        </g>
        <g
           id="g1003"
           transform="translate(611.2873,132.494)">
          <path
             d="m 0,0 c -8.459,0 -12.567,-11.782 -12.567,-18.731 0,-4.229 2.839,-7.009 7.009,-7.009 8.459,0 12.446,11.843 12.446,18.731 C 6.888,-2.78 4.29,0 0,0 m -6.404,-27.553 c -6.345,0 -11.238,3.686 -11.238,10.393 0,9.97 8.217,19.033 18.367,19.033 6.405,0 11.239,-3.746 11.239,-10.392 0,-10.031 -8.157,-19.034 -18.368,-19.034"
             style="fill:#58595b;fill-opacity:1;fill-rule:nonzero;stroke:none"
             id="path1005" />
        </g>
        <g
           id="g1007"
           transform="translate(647.4769,128.7474)">
          <path
             d="m 0,0 c -1.45,0 -2.054,1.209 -2.901,1.209 -2.779,0 -9.183,-10.333 -9.969,-12.991 h -0.604 l -3.022,-12.024 c -1.51,0.484 -3.141,0.725 -4.772,0.725 1.268,4.109 5.86,20.302 5.86,23.685 0,0.363 -0.18,0.846 -0.483,1.088 -1.208,-0.12 -4.29,-2.477 -5.377,-3.263 l -0.665,0.846 c 2.115,1.632 7.13,6.344 9.789,6.344 1.086,0 1.812,-0.664 1.812,-1.752 0,-3.987 -1.994,-8.942 -2.659,-12.991 l 0.121,-0.12 c 1.752,3.806 7.674,14.863 12.327,14.863 2.477,0 2.537,-0.906 2.537,-3.202 C 1.994,0.846 1.691,0 0,0"
             style="fill:#58595b;fill-opacity:1;fill-rule:nonzero;stroke:none"
             id="path1009" />
        </g>
        <g
           id="g1011"
           transform="translate(661.492,131.7688)">
          <path
             d="m 0,0 c -1.148,-4.471 -5.921,-19.698 -5.921,-22.96 0,-0.906 0.483,-1.088 1.269,-1.088 1.631,0 4.471,1.813 5.86,2.719 l 0.605,-0.967 c -2.236,-1.994 -6.103,-4.531 -9.184,-4.531 -1.571,0 -3.625,0.604 -3.625,2.537 0,5.499 5.377,17.946 6.766,24.29 h -5.678 v 1.39 c 5.316,0.241 8.82,3.988 10.875,8.64 H 2.659 L 0.483,1.873 H 6.284 V 0 Z"
             style="fill:#58595b;fill-opacity:1;fill-rule:nonzero;stroke:none"
             id="path1013" />
        </g>
        <g
           id="g1015"
           transform="translate(680.8848,141.92)">
          <path
             d="m 0,0 c -1.872,0 -3.262,1.39 -3.262,3.262 0,1.874 1.39,3.324 3.262,3.324 1.933,0 3.263,-1.45 3.263,-3.324 C 3.263,1.39 1.873,0 0,0 m -7.371,-36.979 c -2.115,0 -3.625,1.209 -3.625,3.444 0,5.559 5.68,15.831 5.68,21.027 0,0.302 -0.303,0.544 -0.605,0.544 -1.511,0 -4.108,-2.235 -5.438,-3.081 l -0.725,1.027 c 2.598,1.812 6.888,6.465 10.03,6.465 1.269,0 2.417,-0.362 2.417,-1.813 0,-4.471 -6.284,-17.522 -6.284,-23.202 0,-0.967 0.483,-1.269 1.33,-1.269 1.812,0 4.954,2.115 6.524,3.082 l 0.726,-0.967 c -2.598,-1.873 -6.646,-5.257 -10.03,-5.257"
             style="fill:#58595b;fill-opacity:1;fill-rule:nonzero;stroke:none"
             id="path1017" />
        </g>
        <g
           id="g1019"
           transform="translate(710.1885,104.9413)">
          <path
             d="m 0,0 c -1.511,0 -3.142,1.208 -3.142,2.84 0,2.538 2.417,10.453 3.142,13.353 l -0.12,0.121 C -3.324,11.299 -12.507,0 -18.852,0 c -2.537,0 -4.35,1.45 -4.35,4.109 0,6.586 6.163,14.38 6.405,20.121 l -0.665,0.785 c -1.148,-0.181 -3.867,-2.055 -5.135,-2.659 l -0.605,1.088 c 2.961,1.752 6.284,5.981 9.91,5.981 1.691,0 2.054,-0.664 2.054,-2.235 0,-6.526 -6.889,-15.166 -6.889,-21.752 0,-1.329 0.605,-1.813 1.874,-1.813 5.68,0 13.111,10.635 15.89,14.804 l 0.968,0.362 2.477,10.634 C 4.532,29.063 6.043,28.821 7.553,28.821 6.043,22.538 1.934,10.453 1.934,4.532 c 0,-0.785 0.362,-1.148 1.148,-1.148 2.115,0 3.987,1.45 5.68,2.477 L 9.487,4.834 C 7.251,3.082 2.901,0 0,0"
             style="fill:#58595b;fill-opacity:1;fill-rule:nonzero;stroke:none"
             id="path1021" />
        </g>
        <g
           id="g1023"
           transform="translate(763.5374,104.9413)">
          <path
             d="m 0,0 c -1.994,0 -3.504,0.785 -3.504,2.961 0,6.646 6.103,13.957 6.103,20.543 0,1.33 -0.846,2.115 -2.176,2.115 -3.625,0 -12.325,-10.271 -14.32,-13.414 h -0.786 C -15.769,8.157 -16.979,4.109 -17.824,0 c -1.329,0.725 -3.022,0.725 -4.532,0.725 0.967,3.142 6.163,21.45 6.163,23.323 0,0.967 -0.786,1.571 -1.692,1.571 -3.867,0 -12.386,-10.271 -14.259,-13.655 H -32.93 C -34.018,7.976 -35.104,4.048 -35.951,0 c -1.148,0.785 -2.84,0.725 -4.168,0.725 0.906,3.263 5.618,20.786 5.618,23.021 0,0.725 -0.18,1.269 -1.027,1.269 -1.631,0 -3.02,-1.148 -4.411,-1.873 l -0.665,0.906 c 2.236,1.692 6.346,5.377 9.185,5.377 1.329,0 1.994,-0.301 1.994,-1.691 0,-3.928 -1.934,-9.063 -2.9,-12.991 l 0.12,-0.121 c 3.445,3.928 11.662,14.803 16.979,14.803 1.994,0 4.109,-1.027 4.109,-3.262 0,-2.9 -2.115,-8.882 -3.081,-11.782 l 0.12,-0.121 c 3.685,4.471 12.205,15.165 18.247,15.165 1.994,0 3.505,-1.449 3.505,-3.443 0,-7.13 -6.103,-14.804 -6.103,-21.39 0,-0.906 0.484,-1.45 1.39,-1.45 1.571,0 5.075,2.115 6.284,3.142 L 10.03,5.317 C 7.493,3.504 3.203,0 0,0"
             style="fill:#58595b;fill-opacity:1;fill-rule:nonzero;stroke:none"
             id="path1025" />
        </g>
        <g
           id="g1027"
           transform="translate(818.8174,147.4181)">
          <path
             d="m 0,0 c -3.263,0 -1.813,3.383 -5.378,3.383 -6.284,0 -8.036,-13.534 -8.761,-17.824 h 6.586 v -1.812 h -7.009 c -2.296,-12.145 -4.472,-24.411 -8.097,-36.254 l -5.498,-2.658 -0.484,1.208 c 5.559,6.042 8.158,29.909 9.607,37.704 h -7.129 v 1.812 h 7.371 c 2.477,9.607 5.258,19.698 17.039,19.698 0.846,0 3.927,-0.061 3.927,-1.632 C 2.174,1.631 2.356,0 0,0"
             style="fill:#58595b;fill-opacity:1;fill-rule:nonzero;stroke:none"
             id="path1029" />
        </g>
        <g
           id="g1031"
           transform="translate(826.7899,132.494)">
          <path
             d="m 0,0 c -8.459,0 -12.567,-11.782 -12.567,-18.731 0,-4.229 2.839,-7.009 7.009,-7.009 8.459,0 12.446,11.843 12.446,18.731 C 6.888,-2.78 4.29,0 0,0 m -6.404,-27.553 c -6.345,0 -11.238,3.686 -11.238,10.393 0,9.97 8.217,19.033 18.367,19.033 6.405,0 11.239,-3.746 11.239,-10.392 0,-10.031 -8.157,-19.034 -18.368,-19.034"
             style="fill:#58595b;fill-opacity:1;fill-rule:nonzero;stroke:none"
             id="path1033" />
        </g>
        <g
           id="g1035"
           transform="translate(862.9794,128.7474)">
          <path
             d="m 0,0 c -1.45,0 -2.054,1.209 -2.901,1.209 -2.779,0 -9.183,-10.333 -9.969,-12.991 h -0.604 l -3.022,-12.024 c -1.51,0.484 -3.141,0.725 -4.772,0.725 1.268,4.109 5.86,20.302 5.86,23.685 0,0.363 -0.181,0.846 -0.483,1.088 -1.208,-0.12 -4.29,-2.477 -5.377,-3.263 l -0.666,0.846 c 2.116,1.632 7.131,6.344 9.79,6.344 1.086,0 1.811,-0.664 1.811,-1.752 0,-3.987 -1.993,-8.942 -2.658,-12.991 l 0.121,-0.12 c 1.752,3.806 7.674,14.863 12.327,14.863 2.477,0 2.537,-0.906 2.537,-3.202 C 1.994,0.846 1.691,0 0,0"
             style="fill:#58595b;fill-opacity:1;fill-rule:nonzero;stroke:none"
             id="path1037" />
        </g>
        <g
           id="g1039"
           transform="translate(202.4382,76.6744)">
          <path
             d="M 0,0 C 3.067,0 6.425,-1.278 8.908,-3.432 9.237,-3.688 9.273,-4.126 8.982,-4.418 L 6.097,-7.484 C 5.805,-7.74 5.403,-7.74 5.111,-7.521 c -1.388,1.278 -2.993,1.752 -4.783,1.752 -3.98,0 -7.192,-3.359 -7.192,-7.375 0,-3.979 3.249,-7.265 7.229,-7.265 1.058,0 2.154,0.146 3.249,0.584 v 2.117 h -2.3 c -0.402,0 -0.693,0.292 -0.693,0.657 v 3.615 c 0,0.402 0.291,0.694 0.693,0.694 h 7.338 c 0.365,0 0.658,-0.328 0.658,-0.694 l 0.037,-9.821 c 0,-0.183 -0.147,-0.475 -0.293,-0.584 0,0 -3.76,-2.374 -9.054,-2.374 -7.266,0 -13.108,5.769 -13.108,13.071 C -13.108,-5.842 -7.266,0 0,0"
             style="fill:#58595b;fill-opacity:1;fill-rule:nonzero;stroke:none"
             id="path1041" />
        </g>
        <g
           id="g1043"
           transform="translate(217.5092,75.6523)">
          <path
             d="M 0,0 C 0,0.365 0.293,0.693 0.694,0.693 H 15.81 c 0.402,0 0.693,-0.328 0.693,-0.693 v -3.98 c 0,-0.365 -0.291,-0.693 -0.693,-0.693 H 5.696 v -4.528 h 8.324 c 0.365,0 0.695,-0.328 0.695,-0.693 v -3.98 c 0,-0.402 -0.33,-0.694 -0.695,-0.694 H 5.696 v -4.929 H 15.81 c 0.402,0 0.693,-0.328 0.693,-0.694 v -3.979 c 0,-0.365 -0.291,-0.694 -0.693,-0.694 H 0.694 C 0.293,-24.864 0,-24.535 0,-24.17 Z"
             style="fill:#58595b;fill-opacity:1;fill-rule:nonzero;stroke:none"
             id="path1045" />
        </g>
        <g
           id="g1047"
           transform="translate(250.8753,56.2651)">
          <path
             d="m 0,0 c 4.016,0 7.303,3.286 7.303,7.266 0,4.015 -3.287,7.338 -7.303,7.338 -3.98,0 -7.266,-3.323 -7.266,-7.338 C -7.266,3.286 -3.98,0 0,0 m 0,20.446 c 7.303,0 13.144,-5.878 13.144,-13.18 0,-7.302 -5.841,-13.108 -13.144,-13.108 -7.303,0 -13.107,5.806 -13.107,13.108 0,7.302 5.804,13.18 13.107,13.18"
             style="fill:#58595b;fill-opacity:1;fill-rule:nonzero;stroke:none"
             id="path1049" />
        </g>
        <g
           id="g1051"
           transform="translate(280.4421,76.6744)">
          <path
             d="M 0,0 C 3.067,0 6.425,-1.278 8.908,-3.432 9.237,-3.688 9.273,-4.126 8.982,-4.418 L 6.097,-7.484 C 5.805,-7.74 5.403,-7.74 5.111,-7.521 c -1.388,1.278 -2.993,1.752 -4.783,1.752 -3.98,0 -7.192,-3.359 -7.192,-7.375 0,-3.979 3.249,-7.265 7.229,-7.265 1.058,0 2.154,0.146 3.249,0.584 v 2.117 h -2.3 c -0.402,0 -0.693,0.292 -0.693,0.657 v 3.615 c 0,0.402 0.291,0.694 0.693,0.694 h 7.338 c 0.365,0 0.658,-0.328 0.658,-0.694 l 0.037,-9.821 c 0,-0.183 -0.147,-0.475 -0.293,-0.584 0,0 -3.76,-2.374 -9.054,-2.374 -7.266,0 -13.108,5.769 -13.108,13.071 C -13.108,-5.842 -7.266,0 0,0"
             style="fill:#58595b;fill-opacity:1;fill-rule:nonzero;stroke:none"
             id="path1053" />
        </g>
        <g
           id="g1055"
           transform="translate(306.6494,65.4292)">
          <path
             d="M 0,0 C 1.497,0 2.774,1.387 2.774,2.921 2.774,4.454 1.497,5.695 0,5.695 H -5.403 V 0 Z m -11.136,10.223 c 0,0.365 0.292,0.693 0.694,0.693 H 0.474 c 4.381,0 7.959,-3.541 7.959,-7.885 0,-3.36 -2.227,-6.062 -5.403,-7.339 l 5.003,-9.274 c 0.255,-0.475 0,-1.059 -0.621,-1.059 H 2.555 c -0.291,0 -0.511,0.183 -0.583,0.329 l -4.857,9.675 h -2.518 v -9.31 c 0,-0.365 -0.329,-0.694 -0.695,-0.694 h -4.344 c -0.402,0 -0.694,0.329 -0.694,0.694 z"
             style="fill:#58595b;fill-opacity:1;fill-rule:nonzero;stroke:none"
             id="path1057" />
        </g>
        <g
           id="g1059"
           transform="translate(332.4192,59.5513)">
          <path
             d="M 0,0 -2.774,6.024 H -2.811 L -5.55,0 Z m -15.006,-7.813 11.428,24.571 c 0.109,0.219 0.365,0.401 0.621,0.401 h 0.365 c 0.255,0 0.511,-0.182 0.62,-0.401 L 9.456,-7.813 c 0.22,-0.475 -0.072,-0.95 -0.621,-0.95 H 4.783 c -0.657,0 -0.949,0.219 -1.277,0.913 L 2.19,-4.966 h -9.93 l -1.314,-2.92 c -0.183,-0.439 -0.584,-0.877 -1.315,-0.877 h -4.016 c -0.547,0 -0.84,0.475 -0.621,0.95"
             style="fill:#58595b;fill-opacity:1;fill-rule:nonzero;stroke:none"
             id="path1061" />
        </g>
        <g
           id="g1063"
           transform="translate(354.7571,65.3923)">
          <path
             d="M 0,0 C 1.57,0 2.885,1.241 2.885,2.885 2.885,4.418 1.57,5.587 0,5.587 H -3.469 V 0 Z m -9.165,10.26 c 0,0.365 0.293,0.693 0.695,0.693 h 8.798 c 4.492,0 8.179,-3.65 8.179,-8.068 0,-4.528 -3.687,-8.215 -8.142,-8.215 h -3.834 v -8.58 c 0,-0.365 -0.328,-0.694 -0.693,-0.694 H -8.47 c -0.402,0 -0.695,0.329 -0.695,0.694 z"
             style="fill:#58595b;fill-opacity:1;fill-rule:nonzero;stroke:none"
             id="path1065" />
        </g>
        <g
           id="g1067"
           transform="translate(367.7115,75.6523)">
          <path
             d="M 0,0 C 0,0.365 0.329,0.693 0.694,0.693 H 5.04 C 5.44,0.693 5.733,0.365 5.733,0 V -9.201 H 16.175 V 0 c 0,0.365 0.292,0.693 0.693,0.693 h 4.345 c 0.365,0 0.693,-0.328 0.693,-0.693 v -24.17 c 0,-0.365 -0.328,-0.694 -0.693,-0.694 h -4.345 c -0.401,0 -0.693,0.329 -0.693,0.694 v 9.602 H 5.733 v -9.602 c 0,-0.365 -0.293,-0.694 -0.693,-0.694 H 0.694 C 0.329,-24.864 0,-24.535 0,-24.17 Z"
             style="fill:#58595b;fill-opacity:1;fill-rule:nonzero;stroke:none"
             id="path1069" />
        </g>
        <g
           id="g1071"
           transform="translate(396.6206,75.6523)">
          <path
             d="M 0,0 C 0,0.365 0.329,0.693 0.694,0.693 H 5.075 C 5.44,0.693 5.77,0.365 5.77,0 v -24.17 c 0,-0.365 -0.33,-0.694 -0.695,-0.694 H 0.694 C 0.329,-24.864 0,-24.535 0,-24.17 Z"
             style="fill:#58595b;fill-opacity:1;fill-rule:nonzero;stroke:none"
             id="path1073" />
        </g>
        <g
           id="g1075"
           transform="translate(420.7138,76.7106)">
          <path
             d="m 0,0 c 3.652,0 6.354,-1.131 8.837,-3.395 0.328,-0.293 0.328,-0.73 0.035,-1.023 L 6.024,-7.375 c -0.254,-0.255 -0.656,-0.255 -0.912,0 -1.351,1.205 -3.14,1.862 -4.929,1.862 -4.126,0 -7.156,-3.432 -7.156,-7.521 0,-4.053 3.067,-7.412 7.193,-7.412 1.716,0 3.578,0.621 4.892,1.753 0.256,0.219 0.73,0.219 0.949,-0.037 l 2.848,-3.03 C 9.165,-22.016 9.128,-22.49 8.872,-22.746 6.389,-25.155 3.25,-26.287 0,-26.287 c -7.301,0 -13.179,5.805 -13.179,13.107 C -13.179,-5.878 -7.301,0 0,0"
             style="fill:#58595b;fill-opacity:1;fill-rule:nonzero;stroke:none"
             id="path1077" />
        </g>
        <g
           id="g1079"
           transform="translate(443.4881,75.6523)">
          <path
             d="M 0,0 C 0,0.365 0.329,0.693 0.694,0.693 H 5.075 C 5.44,0.693 5.77,0.365 5.77,0 v -24.17 c 0,-0.365 -0.33,-0.694 -0.695,-0.694 H 0.694 C 0.329,-24.864 0,-24.535 0,-24.17 Z"
             style="fill:#58595b;fill-opacity:1;fill-rule:nonzero;stroke:none"
             id="path1081" />
        </g>
        <g
           id="g1083"
           transform="translate(456.2273,76.0536)">
          <path
             d="m 0,0 c 0,0.365 0.328,0.657 0.693,0.657 h 0.914 l 14.567,-14.02 h 0.036 v 12.962 c 0,0.365 0.293,0.693 0.694,0.693 h 4.382 c 0.365,0 0.693,-0.328 0.693,-0.693 v -24.572 c 0,-0.365 -0.328,-0.657 -0.693,-0.657 h -0.585 c -0.11,0 -0.401,0.109 -0.475,0.182 L 5.805,-10.953 H 5.769 v -13.618 c 0,-0.365 -0.293,-0.694 -0.695,-0.694 H 0.73 c -0.365,0 -0.694,0.329 -0.694,0.694 z"
             style="fill:#58595b;fill-opacity:1;fill-rule:nonzero;stroke:none"
             id="path1085" />
        </g>
        <g
           id="g1087"
           transform="translate(485.209,75.6523)">
          <path
             d="M 0,0 C 0,0.365 0.293,0.693 0.694,0.693 H 15.81 c 0.402,0 0.693,-0.328 0.693,-0.693 v -3.98 c 0,-0.365 -0.291,-0.693 -0.693,-0.693 H 5.696 v -5.258 h 8.324 c 0.366,0 0.695,-0.329 0.695,-0.694 v -3.98 c 0,-0.365 -0.329,-0.693 -0.695,-0.693 H 5.696 v -8.872 c 0,-0.365 -0.328,-0.694 -0.693,-0.694 H 0.694 C 0.293,-24.864 0,-24.535 0,-24.17 Z"
             style="fill:#58595b;fill-opacity:1;fill-rule:nonzero;stroke:none"
             id="path1089" />
        </g>
        <g
           id="g1091"
           transform="translate(517.7343,56.2651)">
          <path
             d="m 0,0 c 4.016,0 7.303,3.286 7.303,7.266 0,4.015 -3.287,7.338 -7.303,7.338 -3.98,0 -7.266,-3.323 -7.266,-7.338 C -7.266,3.286 -3.98,0 0,0 m 0,20.446 c 7.303,0 13.144,-5.878 13.144,-13.18 0,-7.302 -5.841,-13.108 -13.144,-13.108 -7.303,0 -13.107,5.806 -13.107,13.108 0,7.302 5.804,13.18 13.107,13.18"
             style="fill:#58595b;fill-opacity:1;fill-rule:nonzero;stroke:none"
             id="path1093" />
        </g>
        <g
           id="g1095"
           transform="translate(547.1548,65.4292)">
          <path
             d="M 0,0 C 1.497,0 2.774,1.387 2.774,2.921 2.774,4.454 1.497,5.695 0,5.695 H -5.404 V 0 Z m -11.136,10.223 c 0,0.365 0.292,0.693 0.694,0.693 H 0.474 c 4.381,0 7.959,-3.541 7.959,-7.885 0,-3.36 -2.227,-6.062 -5.403,-7.339 l 5.003,-9.274 c 0.255,-0.475 0,-1.059 -0.621,-1.059 H 2.555 c -0.291,0 -0.511,0.183 -0.583,0.329 l -4.857,9.675 h -2.519 v -9.31 c 0,-0.365 -0.328,-0.694 -0.693,-0.694 h -4.345 c -0.402,0 -0.694,0.329 -0.694,0.694 z"
             style="fill:#58595b;fill-opacity:1;fill-rule:nonzero;stroke:none"
             id="path1097" />
        </g>
        <g
           id="g1099"
           transform="translate(563.7241,76.1268)">
          <path
             d="m 0,0 c 0.037,0.329 0.365,0.584 0.658,0.584 h 0.584 c 0.181,0 0.511,-0.146 0.62,-0.365 l 8.471,-15.772 h 0.072 l 8.47,15.772 c 0.111,0.219 0.439,0.365 0.621,0.365 h 0.585 c 0.291,0 0.621,-0.255 0.657,-0.584 l 4.126,-24.535 c 0.072,-0.475 -0.256,-0.803 -0.695,-0.803 h -4.308 c -0.328,0 -0.656,0.292 -0.693,0.583 l -1.644,11.283 h -0.072 l -6.134,-11.83 c -0.109,-0.219 -0.437,-0.401 -0.62,-0.401 H 10.04 c -0.219,0 -0.511,0.182 -0.621,0.401 L 3.25,-13.472 H 3.176 L 1.57,-24.755 c -0.036,-0.291 -0.328,-0.583 -0.694,-0.583 h -4.308 c -0.439,0 -0.767,0.328 -0.693,0.803 z"
             style="fill:#58595b;fill-opacity:1;fill-rule:nonzero;stroke:none"
             id="path1101" />
        </g>
        <g
           id="g1103"
           transform="translate(605.7031,59.5513)">
          <path
             d="M 0,0 -2.774,6.024 H -2.811 L -5.55,0 Z m -15.006,-7.813 11.428,24.571 c 0.109,0.219 0.365,0.401 0.621,0.401 h 0.365 c 0.255,0 0.511,-0.182 0.62,-0.401 L 9.456,-7.813 c 0.22,-0.475 -0.072,-0.95 -0.621,-0.95 H 4.783 c -0.657,0 -0.949,0.219 -1.277,0.913 L 2.19,-4.966 h -9.93 l -1.314,-2.92 c -0.183,-0.439 -0.584,-0.877 -1.315,-0.877 h -4.016 c -0.547,0 -0.84,0.475 -0.621,0.95"
             style="fill:#58595b;fill-opacity:1;fill-rule:nonzero;stroke:none"
             id="path1105" />
        </g>
        <g
           id="g1107"
           transform="translate(620.8491,70.979)">
          <path
             d="m 0,0 h -5.222 c -0.401,0 -0.693,0.328 -0.693,0.693 v 3.98 c 0,0.365 0.292,0.694 0.693,0.694 h 16.211 c 0.402,0 0.694,-0.329 0.694,-0.694 V 0.693 C 11.683,0.328 11.391,0 10.989,0 h -5.22 v -19.497 c 0,-0.365 -0.329,-0.694 -0.695,-0.694 H 0.693 C 0.328,-20.191 0,-19.862 0,-19.497 Z"
             style="fill:#58595b;fill-opacity:1;fill-rule:nonzero;stroke:none"
             id="path1109" />
        </g>
        <g
           id="g1111"
           transform="translate(636.9072,75.6523)">
          <path
             d="M 0,0 C 0,0.365 0.329,0.693 0.694,0.693 H 5.075 C 5.44,0.693 5.77,0.365 5.77,0 v -24.17 c 0,-0.365 -0.33,-0.694 -0.695,-0.694 H 0.694 C 0.329,-24.864 0,-24.535 0,-24.17 Z"
             style="fill:#58595b;fill-opacity:1;fill-rule:nonzero;stroke:none"
             id="path1113" />
        </g>
        <g
           id="g1115"
           transform="translate(660.9278,56.2651)">
          <path
             d="m 0,0 c 4.016,0 7.303,3.286 7.303,7.266 0,4.015 -3.287,7.338 -7.303,7.338 -3.98,0 -7.266,-3.323 -7.266,-7.338 C -7.266,3.286 -3.98,0 0,0 m 0,20.446 c 7.303,0 13.144,-5.878 13.144,-13.18 0,-7.302 -5.841,-13.108 -13.144,-13.108 -7.303,0 -13.107,5.806 -13.107,13.108 0,7.302 5.804,13.18 13.107,13.18"
             style="fill:#58595b;fill-opacity:1;fill-rule:nonzero;stroke:none"
             id="path1117" />
        </g>
        <g
           id="g1119"
           transform="translate(679.1763,76.0536)">
          <path
             d="m 0,0 c 0,0.365 0.328,0.657 0.693,0.657 h 0.914 l 14.567,-14.02 h 0.036 v 12.962 c 0,0.365 0.293,0.693 0.694,0.693 h 4.382 c 0.365,0 0.693,-0.328 0.693,-0.693 v -24.572 c 0,-0.365 -0.328,-0.657 -0.693,-0.657 h -0.585 c -0.11,0 -0.401,0.109 -0.475,0.182 L 5.805,-10.953 H 5.768 v -13.618 c 0,-0.365 -0.292,-0.694 -0.694,-0.694 H 0.73 c -0.365,0 -0.694,0.329 -0.694,0.694 z"
             style="fill:#58595b;fill-opacity:1;fill-rule:nonzero;stroke:none"
             id="path1121" />
        </g>
        <g
           id="g1123"
           transform="translate(715.4949,54.2572)">
          <path
             d="M 0,0 1.716,3.03 C 2.008,3.505 2.702,3.432 2.957,3.249 3.104,3.176 5.733,1.241 8.142,1.241 c 1.46,0 2.52,0.913 2.52,2.191 0,1.533 -1.278,2.702 -3.761,3.687 -3.14,1.242 -7.083,3.688 -7.083,8.069 0,3.615 2.811,7.265 8.433,7.265 3.797,0 6.719,-1.934 7.814,-2.738 0.438,-0.255 0.365,-0.912 0.219,-1.168 l -1.862,-2.811 c -0.256,-0.402 -0.912,-0.73 -1.242,-0.475 -0.328,0.182 -2.993,2.191 -5.22,2.191 -1.315,0 -2.301,-0.876 -2.301,-1.862 0,-1.351 1.095,-2.373 3.98,-3.542 2.848,-1.132 7.375,-3.359 7.375,-8.324 0,-3.761 -3.25,-7.558 -8.616,-7.558 -4.746,0 -7.375,1.972 -8.215,2.811 C -0.182,-0.658 -0.291,-0.511 0,0"
             style="fill:#58595b;fill-opacity:1;fill-rule:nonzero;stroke:none"
             id="path1125" />
        </g>
        <g
           id="g1127"
           transform="translate(749.006,76.7106)">
          <path
             d="m 0,0 c 3.652,0 6.354,-1.131 8.837,-3.395 0.328,-0.293 0.328,-0.73 0.035,-1.023 L 6.024,-7.375 c -0.254,-0.255 -0.656,-0.255 -0.912,0 -1.351,1.205 -3.14,1.862 -4.929,1.862 -4.126,0 -7.156,-3.432 -7.156,-7.521 0,-4.053 3.067,-7.412 7.193,-7.412 1.716,0 3.578,0.621 4.892,1.753 0.256,0.219 0.73,0.219 0.949,-0.037 l 2.848,-3.03 C 9.165,-22.016 9.128,-22.49 8.872,-22.746 6.389,-25.155 3.25,-26.287 0,-26.287 c -7.301,0 -13.179,5.805 -13.179,13.107 C -13.179,-5.878 -7.301,0 0,0"
             style="fill:#58595b;fill-opacity:1;fill-rule:nonzero;stroke:none"
             id="path1129" />
        </g>
        <g
           id="g1131"
           transform="translate(762.9831,75.6523)">
          <path
             d="M 0,0 C 0,0.365 0.329,0.693 0.694,0.693 H 5.075 C 5.44,0.693 5.77,0.365 5.77,0 v -24.17 c 0,-0.365 -0.33,-0.694 -0.695,-0.694 H 0.694 C 0.329,-24.864 0,-24.535 0,-24.17 Z"
             style="fill:#58595b;fill-opacity:1;fill-rule:nonzero;stroke:none"
             id="path1133" />
        </g>
        <g
           id="g1135"
           transform="translate(775.7579,75.6523)">
          <path
             d="M 0,0 C 0,0.365 0.293,0.693 0.695,0.693 H 15.81 c 0.402,0 0.693,-0.328 0.693,-0.693 v -3.98 c 0,-0.365 -0.291,-0.693 -0.693,-0.693 H 5.696 v -4.528 h 8.324 c 0.366,0 0.695,-0.328 0.695,-0.693 v -3.98 c 0,-0.402 -0.329,-0.694 -0.695,-0.694 H 5.696 v -4.929 H 15.81 c 0.402,0 0.693,-0.328 0.693,-0.694 v -3.979 c 0,-0.365 -0.291,-0.694 -0.693,-0.694 H 0.695 C 0.293,-24.864 0,-24.535 0,-24.17 Z"
             style="fill:#58595b;fill-opacity:1;fill-rule:nonzero;stroke:none"
             id="path1137" />
        </g>
        <g
           id="g1139"
           transform="translate(797.8427,76.0536)">
          <path
             d="m 0,0 c 0,0.365 0.328,0.657 0.693,0.657 h 0.914 l 14.567,-14.02 h 0.036 v 12.962 c 0,0.365 0.293,0.693 0.694,0.693 h 4.382 c 0.365,0 0.693,-0.328 0.693,-0.693 v -24.572 c 0,-0.365 -0.328,-0.657 -0.693,-0.657 h -0.585 c -0.11,0 -0.401,0.109 -0.475,0.182 L 5.805,-10.953 H 5.769 v -13.618 c 0,-0.365 -0.293,-0.694 -0.694,-0.694 H 0.73 c -0.365,0 -0.694,0.329 -0.694,0.694 z"
             style="fill:#58595b;fill-opacity:1;fill-rule:nonzero;stroke:none"
             id="path1141" />
        </g>
        <g
           id="g1143"
           transform="translate(838.1426,76.7106)">
          <path
             d="m 0,0 c 3.652,0 6.354,-1.131 8.837,-3.395 0.328,-0.293 0.328,-0.73 0.035,-1.023 L 6.024,-7.375 c -0.254,-0.255 -0.656,-0.255 -0.912,0 -1.351,1.205 -3.14,1.862 -4.929,1.862 -4.125,0 -7.156,-3.432 -7.156,-7.521 0,-4.053 3.067,-7.412 7.193,-7.412 1.716,0 3.578,0.621 4.892,1.753 0.256,0.219 0.73,0.219 0.949,-0.037 l 2.848,-3.03 C 9.165,-22.016 9.128,-22.49 8.872,-22.746 6.389,-25.155 3.25,-26.287 0,-26.287 c -7.301,0 -13.179,5.805 -13.179,13.107 C -13.179,-5.878 -7.301,0 0,0"
             style="fill:#58595b;fill-opacity:1;fill-rule:nonzero;stroke:none"
             id="path1145" />
        </g>
        <g
           id="g1147"
           transform="translate(852.1196,75.6523)">
          <path
             d="M 0,0 C 0,0.365 0.293,0.693 0.694,0.693 H 15.81 c 0.402,0 0.693,-0.328 0.693,-0.693 v -3.98 c 0,-0.365 -0.291,-0.693 -0.693,-0.693 H 5.696 v -4.528 h 8.324 c 0.366,0 0.695,-0.328 0.695,-0.693 v -3.98 c 0,-0.402 -0.329,-0.694 -0.695,-0.694 H 5.696 v -4.929 H 15.81 c 0.402,0 0.693,-0.328 0.693,-0.694 v -3.979 c 0,-0.365 -0.291,-0.694 -0.693,-0.694 H 0.694 C 0.293,-24.864 0,-24.535 0,-24.17 Z"
             style="fill:#58595b;fill-opacity:1;fill-rule:nonzero;stroke:none"
             id="path1149" />
        </g>
      </g>
      <text
         xml:space="preserve"
         id="text961"
         style="font-size:8px;line-height:1.25;font-family:sans-serif;white-space:pre;shape-inside:url(#rect963);" />
    </g>
  </g>
</svg>
